<?xml version="1.0" standalone="no"?>
<!DOCTYPE svg PUBLIC "-//W3C//DTD SVG 20010904//EN"
 "http://www.w3.org/TR/2001/REC-SVG-20010904/DTD/svg10.dtd">
<svg version="1.0" xmlns="http://www.w3.org/2000/svg"
 width="100.000000pt" height="99.000000pt" viewBox="0 0 100.000000 99.000000"
 preserveAspectRatio="xMidYMid meet">

<g transform="translate(0.000000,99.000000) scale(0.100000,-0.100000)"
fill="#000000" stroke="none">
<path d="M388 964 c-85 -20 -155 -59 -224 -126 -203 -194 -206 -505 -8 -704
81 -82 173 -127 264 -130 36 -2 54 0 40 2 -14 3 -40 10 -57 15 l-33 11 0 274
c0 265 1 274 19 265 39 -21 159 -163 219 -259 l62 -101 0 -85 0 -84 -47 -16
c-27 -8 -57 -17 -68 -20 -11 -3 7 -4 40 -3 161 7 343 165 390 341 13 47 16 90
13 167 -3 95 -6 111 -41 183 -101 214 -338 326 -569 270z m245 -29 l37 -19 0
-315 0 -316 -37 63 c-60 102 -135 194 -201 247 l-63 49 3 146 3 145 35 13 c49
17 175 10 223 -13z m-365 -250 c-3 -3 -100 16 -107 21 -5 5 46 89 76 125 l28
33 3 -88 c2 -49 2 -90 0 -91z m567 55 c85 -166 79 -396 -14 -543 -17 -26 -33
-47 -36 -47 -3 0 -5 152 -5 338 1 369 -1 361 55 252z m-591 -110 l26 -10 0
-255 c0 -140 -3 -255 -7 -255 -11 1 -67 78 -91 125 -42 85 -55 151 -50 274 2
64 8 122 12 130 9 14 61 10 110 -9z"/>
</g>
</svg>
